<mxfile host="app.diagrams.net" modified="2023-04-24T15:43:28.326Z" agent="5.0 (Windows NT 10.0; Win64; x64) AppleWebKit/537.36 (KHTML, like Gecko) Chrome/112.0.0.0 Safari/537.36 Edg/112.0.1722.58" etag="24R4dY61BH1-qCs-mxuz" version="20.6.0" type="github">
  <diagram name="Page-1" id="4AmliA1bGbIhGyY8KCNw">
    <mxGraphModel dx="1117" dy="1711" grid="1" gridSize="10" guides="1" tooltips="1" connect="1" arrows="1" fold="1" page="1" pageScale="1" pageWidth="850" pageHeight="1100" math="0" shadow="0">
      <root>
        <mxCell id="0" />
        <mxCell id="1" parent="0" />
        <mxCell id="6q30bPFDWuxzVYTixxc3-16" style="rounded=0;orthogonalLoop=1;jettySize=auto;html=1;entryX=0;entryY=0.5;entryDx=0;entryDy=0;endArrow=none;endFill=0;" parent="1" source="6q30bPFDWuxzVYTixxc3-1" target="6q30bPFDWuxzVYTixxc3-8" edge="1">
          <mxGeometry relative="1" as="geometry" />
        </mxCell>
        <mxCell id="6q30bPFDWuxzVYTixxc3-18" style="rounded=0;orthogonalLoop=1;jettySize=auto;html=1;entryX=0;entryY=0.5;entryDx=0;entryDy=0;endArrow=none;endFill=0;" parent="1" source="6q30bPFDWuxzVYTixxc3-1" target="6q30bPFDWuxzVYTixxc3-9" edge="1">
          <mxGeometry relative="1" as="geometry" />
        </mxCell>
        <mxCell id="6q30bPFDWuxzVYTixxc3-29" style="rounded=0;orthogonalLoop=1;jettySize=auto;html=1;entryX=0;entryY=0.5;entryDx=0;entryDy=0;endArrow=none;endFill=0;" parent="1" source="6q30bPFDWuxzVYTixxc3-1" target="6q30bPFDWuxzVYTixxc3-28" edge="1">
          <mxGeometry relative="1" as="geometry" />
        </mxCell>
        <mxCell id="6q30bPFDWuxzVYTixxc3-36" style="rounded=0;orthogonalLoop=1;jettySize=auto;html=1;entryX=0;entryY=0.5;entryDx=0;entryDy=0;endArrow=none;endFill=0;" parent="1" source="6q30bPFDWuxzVYTixxc3-1" target="6q30bPFDWuxzVYTixxc3-34" edge="1">
          <mxGeometry relative="1" as="geometry" />
        </mxCell>
        <mxCell id="6q30bPFDWuxzVYTixxc3-56" style="rounded=0;orthogonalLoop=1;jettySize=auto;html=1;entryX=0;entryY=1;entryDx=0;entryDy=0;endArrow=none;endFill=0;" parent="1" source="6q30bPFDWuxzVYTixxc3-1" target="6q30bPFDWuxzVYTixxc3-50" edge="1">
          <mxGeometry relative="1" as="geometry" />
        </mxCell>
        <mxCell id="6q30bPFDWuxzVYTixxc3-1" value="Customer" style="shape=umlActor;verticalLabelPosition=bottom;verticalAlign=top;html=1;" parent="1" vertex="1">
          <mxGeometry x="30" y="350" width="30" height="60" as="geometry" />
        </mxCell>
        <mxCell id="6q30bPFDWuxzVYTixxc3-31" style="rounded=0;orthogonalLoop=1;jettySize=auto;html=1;entryX=0.5;entryY=0;entryDx=0;entryDy=0;endArrow=none;endFill=0;" parent="1" source="6q30bPFDWuxzVYTixxc3-3" target="6q30bPFDWuxzVYTixxc3-30" edge="1">
          <mxGeometry relative="1" as="geometry" />
        </mxCell>
        <mxCell id="6q30bPFDWuxzVYTixxc3-33" style="rounded=0;orthogonalLoop=1;jettySize=auto;html=1;entryX=1;entryY=0.5;entryDx=0;entryDy=0;endArrow=none;endFill=0;" parent="1" source="6q30bPFDWuxzVYTixxc3-3" target="6q30bPFDWuxzVYTixxc3-9" edge="1">
          <mxGeometry relative="1" as="geometry" />
        </mxCell>
        <mxCell id="6q30bPFDWuxzVYTixxc3-37" style="rounded=0;orthogonalLoop=1;jettySize=auto;html=1;entryX=1;entryY=0.5;entryDx=0;entryDy=0;endArrow=none;endFill=0;" parent="1" source="6q30bPFDWuxzVYTixxc3-3" target="6q30bPFDWuxzVYTixxc3-34" edge="1">
          <mxGeometry relative="1" as="geometry" />
        </mxCell>
        <mxCell id="6q30bPFDWuxzVYTixxc3-38" style="rounded=0;orthogonalLoop=1;jettySize=auto;html=1;entryX=0.5;entryY=0;entryDx=0;entryDy=0;endArrow=none;endFill=0;" parent="1" source="6q30bPFDWuxzVYTixxc3-3" target="6q30bPFDWuxzVYTixxc3-35" edge="1">
          <mxGeometry relative="1" as="geometry" />
        </mxCell>
        <mxCell id="6q30bPFDWuxzVYTixxc3-39" style="rounded=0;orthogonalLoop=1;jettySize=auto;html=1;entryX=1;entryY=0.5;entryDx=0;entryDy=0;endArrow=none;endFill=0;" parent="1" source="6q30bPFDWuxzVYTixxc3-3" target="6q30bPFDWuxzVYTixxc3-8" edge="1">
          <mxGeometry relative="1" as="geometry" />
        </mxCell>
        <mxCell id="6q30bPFDWuxzVYTixxc3-42" style="rounded=0;orthogonalLoop=1;jettySize=auto;html=1;entryX=1;entryY=0.5;entryDx=0;entryDy=0;endArrow=none;endFill=0;" parent="1" source="6q30bPFDWuxzVYTixxc3-3" target="6q30bPFDWuxzVYTixxc3-10" edge="1">
          <mxGeometry relative="1" as="geometry" />
        </mxCell>
        <mxCell id="6q30bPFDWuxzVYTixxc3-43" style="rounded=0;orthogonalLoop=1;jettySize=auto;html=1;entryX=1;entryY=0.5;entryDx=0;entryDy=0;endArrow=none;endFill=0;" parent="1" source="6q30bPFDWuxzVYTixxc3-3" target="6q30bPFDWuxzVYTixxc3-11" edge="1">
          <mxGeometry relative="1" as="geometry" />
        </mxCell>
        <mxCell id="6q30bPFDWuxzVYTixxc3-57" style="rounded=0;orthogonalLoop=1;jettySize=auto;html=1;entryX=1;entryY=1;entryDx=0;entryDy=0;endArrow=none;endFill=0;" parent="1" source="6q30bPFDWuxzVYTixxc3-3" target="6q30bPFDWuxzVYTixxc3-50" edge="1">
          <mxGeometry relative="1" as="geometry" />
        </mxCell>
        <mxCell id="8_Ot3wEcPDikVnHrrVS4-6" style="rounded=0;orthogonalLoop=1;jettySize=auto;html=1;entryX=0.5;entryY=1;entryDx=0;entryDy=0;fontFamily=Helvetica;fontSize=12;fontColor=default;startSize=0;endArrow=none;endFill=0;" edge="1" parent="1" source="6q30bPFDWuxzVYTixxc3-3" target="8_Ot3wEcPDikVnHrrVS4-5">
          <mxGeometry relative="1" as="geometry" />
        </mxCell>
        <mxCell id="8_Ot3wEcPDikVnHrrVS4-11" style="edgeStyle=none;rounded=0;orthogonalLoop=1;jettySize=auto;html=1;exitX=0.75;exitY=0.1;exitDx=0;exitDy=0;exitPerimeter=0;fontFamily=Helvetica;fontSize=12;fontColor=default;endArrow=none;endFill=0;startSize=0;" edge="1" parent="1" source="6q30bPFDWuxzVYTixxc3-3">
          <mxGeometry relative="1" as="geometry">
            <mxPoint x="795" y="366" as="targetPoint" />
          </mxGeometry>
        </mxCell>
        <mxCell id="6q30bPFDWuxzVYTixxc3-3" value="Librarian" style="shape=umlActor;verticalLabelPosition=bottom;verticalAlign=top;html=1;" parent="1" vertex="1">
          <mxGeometry x="790" y="360" width="30" height="60" as="geometry" />
        </mxCell>
        <mxCell id="6q30bPFDWuxzVYTixxc3-8" value="Log in" style="ellipse;whiteSpace=wrap;html=1;" parent="1" vertex="1">
          <mxGeometry x="310" y="210" width="120" height="80" as="geometry" />
        </mxCell>
        <mxCell id="6q30bPFDWuxzVYTixxc3-9" value="View book" style="ellipse;whiteSpace=wrap;html=1;" parent="1" vertex="1">
          <mxGeometry x="310" y="10" width="120" height="80" as="geometry" />
        </mxCell>
        <mxCell id="6q30bPFDWuxzVYTixxc3-10" value="Order book" style="ellipse;whiteSpace=wrap;html=1;" parent="1" vertex="1">
          <mxGeometry x="310" y="340" width="120" height="80" as="geometry" />
        </mxCell>
        <mxCell id="6q30bPFDWuxzVYTixxc3-11" value="Checkout" style="ellipse;whiteSpace=wrap;html=1;" parent="1" vertex="1">
          <mxGeometry x="310" y="460" width="120" height="80" as="geometry" />
        </mxCell>
        <mxCell id="6q30bPFDWuxzVYTixxc3-19" style="rounded=0;orthogonalLoop=1;jettySize=auto;html=1;entryX=0;entryY=0.5;entryDx=0;entryDy=0;endArrow=none;endFill=0;" parent="1" source="6q30bPFDWuxzVYTixxc3-1" target="6q30bPFDWuxzVYTixxc3-10" edge="1">
          <mxGeometry relative="1" as="geometry">
            <mxPoint x="170" y="163" as="sourcePoint" />
            <mxPoint x="250" y="180" as="targetPoint" />
          </mxGeometry>
        </mxCell>
        <mxCell id="6q30bPFDWuxzVYTixxc3-21" style="rounded=0;orthogonalLoop=1;jettySize=auto;html=1;entryX=0;entryY=0.5;entryDx=0;entryDy=0;endArrow=none;endFill=0;" parent="1" source="6q30bPFDWuxzVYTixxc3-1" target="6q30bPFDWuxzVYTixxc3-11" edge="1">
          <mxGeometry relative="1" as="geometry">
            <mxPoint x="210" y="180" as="sourcePoint" />
            <mxPoint x="280" y="290" as="targetPoint" />
          </mxGeometry>
        </mxCell>
        <mxCell id="6q30bPFDWuxzVYTixxc3-27" value="Request Review" style="ellipse;whiteSpace=wrap;html=1;" parent="1" vertex="1">
          <mxGeometry x="310" y="680" width="120" height="80" as="geometry" />
        </mxCell>
        <mxCell id="6q30bPFDWuxzVYTixxc3-40" style="rounded=0;orthogonalLoop=1;jettySize=auto;html=1;entryX=0.5;entryY=0.5;entryDx=0;entryDy=0;entryPerimeter=0;endArrow=none;endFill=0;exitX=1;exitY=0.5;exitDx=0;exitDy=0;" parent="1" source="6q30bPFDWuxzVYTixxc3-28" target="6q30bPFDWuxzVYTixxc3-3" edge="1">
          <mxGeometry relative="1" as="geometry" />
        </mxCell>
        <mxCell id="6q30bPFDWuxzVYTixxc3-28" value="Chat&amp;nbsp;" style="ellipse;whiteSpace=wrap;html=1;" parent="1" vertex="1">
          <mxGeometry x="310" y="100" width="120" height="80" as="geometry" />
        </mxCell>
        <mxCell id="6q30bPFDWuxzVYTixxc3-30" value="Create Book" style="ellipse;whiteSpace=wrap;html=1;" parent="1" vertex="1">
          <mxGeometry x="590" y="70" width="120" height="80" as="geometry" />
        </mxCell>
        <mxCell id="6q30bPFDWuxzVYTixxc3-34" value="View review" style="ellipse;whiteSpace=wrap;html=1;" parent="1" vertex="1">
          <mxGeometry x="310" y="560" width="120" height="80" as="geometry" />
        </mxCell>
        <mxCell id="6q30bPFDWuxzVYTixxc3-35" value="Create Review" style="ellipse;whiteSpace=wrap;html=1;" parent="1" vertex="1">
          <mxGeometry x="480" y="-30" width="120" height="80" as="geometry" />
        </mxCell>
        <mxCell id="6q30bPFDWuxzVYTixxc3-47" value="include" style="endArrow=block;endSize=16;endFill=0;html=1;rounded=0;dashed=1;exitX=0.5;exitY=1;exitDx=0;exitDy=0;entryX=0.5;entryY=0;entryDx=0;entryDy=0;" parent="1" source="6q30bPFDWuxzVYTixxc3-10" target="6q30bPFDWuxzVYTixxc3-11" edge="1">
          <mxGeometry width="160" relative="1" as="geometry">
            <mxPoint x="30" y="530" as="sourcePoint" />
            <mxPoint x="190" y="530" as="targetPoint" />
          </mxGeometry>
        </mxCell>
        <mxCell id="6q30bPFDWuxzVYTixxc3-49" value="include" style="endArrow=block;endSize=16;endFill=0;html=1;rounded=0;dashed=1;exitX=0.5;exitY=1;exitDx=0;exitDy=0;entryX=0.5;entryY=0;entryDx=0;entryDy=0;" parent="1" source="6q30bPFDWuxzVYTixxc3-8" target="6q30bPFDWuxzVYTixxc3-10" edge="1">
          <mxGeometry width="160" relative="1" as="geometry">
            <mxPoint x="440" y="380" as="sourcePoint" />
            <mxPoint x="440" y="420" as="targetPoint" />
          </mxGeometry>
        </mxCell>
        <mxCell id="6q30bPFDWuxzVYTixxc3-50" value="Manage cart" style="ellipse;whiteSpace=wrap;html=1;" parent="1" vertex="1">
          <mxGeometry x="310" y="-80" width="120" height="80" as="geometry" />
        </mxCell>
        <mxCell id="6q30bPFDWuxzVYTixxc3-51" value="Add to cart" style="ellipse;whiteSpace=wrap;html=1;" parent="1" vertex="1">
          <mxGeometry x="250" y="-280" width="120" height="80" as="geometry" />
        </mxCell>
        <mxCell id="6q30bPFDWuxzVYTixxc3-52" value="Remove from cart" style="ellipse;whiteSpace=wrap;html=1;" parent="1" vertex="1">
          <mxGeometry x="390" y="-280" width="120" height="80" as="geometry" />
        </mxCell>
        <mxCell id="6q30bPFDWuxzVYTixxc3-53" value="Extends" style="endArrow=block;endSize=16;endFill=0;html=1;rounded=0;entryX=0.5;entryY=1;entryDx=0;entryDy=0;exitX=0.5;exitY=0;exitDx=0;exitDy=0;" parent="1" source="6q30bPFDWuxzVYTixxc3-50" target="6q30bPFDWuxzVYTixxc3-51" edge="1">
          <mxGeometry width="160" relative="1" as="geometry">
            <mxPoint x="290" y="130" as="sourcePoint" />
            <mxPoint x="450" y="130" as="targetPoint" />
          </mxGeometry>
        </mxCell>
        <mxCell id="6q30bPFDWuxzVYTixxc3-54" value="Extends" style="endArrow=block;endSize=16;endFill=0;html=1;rounded=0;entryX=0.5;entryY=1;entryDx=0;entryDy=0;exitX=0.5;exitY=0;exitDx=0;exitDy=0;" parent="1" source="6q30bPFDWuxzVYTixxc3-50" target="6q30bPFDWuxzVYTixxc3-52" edge="1">
          <mxGeometry width="160" relative="1" as="geometry">
            <mxPoint x="380" y="-110" as="sourcePoint" />
            <mxPoint x="310" y="-140" as="targetPoint" />
          </mxGeometry>
        </mxCell>
        <mxCell id="8_Ot3wEcPDikVnHrrVS4-4" value="Extends" style="endArrow=block;endSize=16;endFill=0;html=1;rounded=0;fontFamily=Helvetica;fontSize=12;fontColor=default;exitX=0.5;exitY=1;exitDx=0;exitDy=0;entryX=0.5;entryY=0;entryDx=0;entryDy=0;" edge="1" parent="1" source="6q30bPFDWuxzVYTixxc3-34" target="6q30bPFDWuxzVYTixxc3-27">
          <mxGeometry width="160" relative="1" as="geometry">
            <mxPoint x="360" y="780" as="sourcePoint" />
            <mxPoint x="520" y="780" as="targetPoint" />
          </mxGeometry>
        </mxCell>
        <mxCell id="8_Ot3wEcPDikVnHrrVS4-5" value="Manage Order" style="ellipse;whiteSpace=wrap;html=1;strokeColor=default;fontFamily=Helvetica;fontSize=12;fontColor=default;startSize=0;fillColor=default;" vertex="1" parent="1">
          <mxGeometry x="630" y="-30" width="120" height="60" as="geometry" />
        </mxCell>
        <mxCell id="8_Ot3wEcPDikVnHrrVS4-9" value="" style="swimlane;startSize=0;strokeColor=default;fontFamily=Helvetica;fontSize=12;fontColor=default;fillColor=default;" vertex="1" parent="1">
          <mxGeometry x="100" y="-310" width="660" height="1090" as="geometry" />
        </mxCell>
        <mxCell id="8_Ot3wEcPDikVnHrrVS4-12" value="&lt;b&gt;Book Management System&lt;/b&gt;" style="text;html=1;align=center;verticalAlign=middle;resizable=0;points=[];autosize=1;strokeColor=none;fillColor=none;fontSize=12;fontFamily=Helvetica;fontColor=default;" vertex="1" parent="8_Ot3wEcPDikVnHrrVS4-9">
          <mxGeometry x="230" width="180" height="30" as="geometry" />
        </mxCell>
      </root>
    </mxGraphModel>
  </diagram>
</mxfile>
